<svg width="29" height="29" viewBox="0 0 32 32" fill="none" xmlns="http://www.w3.org/2000/svg">
<path d="M13.6562 18.3125C13.6562 19.5187 12.7813 19.9 11.7063 19.9H8.8875V16.5938H11.7625C12.925 16.6 13.6562 17.0812 13.6562 18.3125ZM13.175 13.1687C13.175 12.0625 12.3187 11.8 11.3687 11.8H8.89375V14.6H11.5625C12.5063 14.6 13.175 14.1875 13.175 13.1687ZM21.4438 14.6187C20.3 14.6187 19.5375 15.3313 19.4625 16.475H23.35C23.2438 15.3188 22.6438 14.6187 21.4438 14.6187ZM30 5V27C30 28.6562 28.6562 30 27 30H5C3.34375 30 2 28.6562 2 27V5C2 3.34375 3.34375 2 5 2H27C28.6562 2 30 3.34375 30 5ZM18.9813 11.5625H23.8438V10.3813H18.9813V11.5625ZM16.2937 18.4562C16.2937 16.95 15.5812 15.65 14.1062 15.2312C15.1812 14.7187 15.7437 14.125 15.7437 12.9187C15.7437 10.5312 13.9625 9.95 11.9062 9.95H6.25V21.95H12.0688C14.25 21.9375 16.2937 20.8937 16.2937 18.4562ZM25.75 17.5312C25.75 14.9625 24.2437 12.8188 21.525 12.8188C18.875 12.8188 17.0813 14.8063 17.0813 17.4188C17.0813 20.125 18.7875 21.9813 21.525 21.9813C23.6 21.9813 24.9438 21.05 25.5938 19.0562H23.4875C23.2562 19.8 22.325 20.1875 21.6 20.1875C20.2 20.1875 19.4688 19.3688 19.4688 17.9813H25.7313C25.7375 17.8375 25.75 17.6813 25.75 17.5312Z" fill="white"/>
</svg>
