<svg width="8" height="8" viewBox="0 0 33 33" fill="none" xmlns="http://www.w3.org/2000/svg">
<path d="M26.91 14.8216H30.91V17.4883H26.91V14.8216ZM1.57666 14.8216H5.57666V17.4883H1.57666V14.8216ZM17.5767 1.48828V5.48828H14.91V1.48828H17.5767ZM6.80333 4.82161L9.64333 7.67495L7.74999 9.55495L4.90999 6.72828L6.80333 4.82161ZM22.8433 7.66161L25.67 4.82161L27.5767 6.72828L24.7367 9.55495L22.8433 7.66161ZM16.2433 8.15495C18.3651 8.15495 20.3999 8.9978 21.9002 10.4981C23.4005 11.9984 24.2433 14.0332 24.2433 16.1549C24.2433 19.1149 22.63 21.7016 20.2433 23.0883V25.4883C20.2433 25.8419 20.1029 26.181 19.8528 26.4311C19.6028 26.6811 19.2636 26.8216 18.91 26.8216H13.5767C13.223 26.8216 12.8839 26.6811 12.6339 26.4311C12.3838 26.181 12.2433 25.8419 12.2433 25.4883V23.0883C9.85666 21.7016 8.24333 19.1149 8.24333 16.1549C8.24333 14.0332 9.08618 11.9984 10.5865 10.4981C12.0868 8.9978 14.1216 8.15495 16.2433 8.15495ZM18.91 28.1549V29.4883C18.91 29.8419 18.7695 30.181 18.5195 30.4311C18.2694 30.6811 17.9303 30.8216 17.5767 30.8216H14.91C14.5564 30.8216 14.2172 30.6811 13.9672 30.4311C13.7171 30.181 13.5767 29.8419 13.5767 29.4883V28.1549H18.91ZM14.91 24.1549H17.5767V21.3149C19.8833 20.7283 21.5767 18.6349 21.5767 16.1549C21.5767 14.7405 21.0148 13.3839 20.0146 12.3837C19.0144 11.3835 17.6578 10.8216 16.2433 10.8216C14.8288 10.8216 13.4723 11.3835 12.4721 12.3837C11.4719 13.3839 10.91 14.7405 10.91 16.1549C10.91 18.6349 12.6033 20.7283 14.91 21.3149V24.1549Z" fill="#E2BD5D"/>
</svg>
